<svg width="435" height="435" viewBox="0 0 435 435" fill="none" xmlns="http://www.w3.org/2000/svg">
<path d="M43.7313 245C39.8694 245 36.6153 243.677 33.9692 241.031C31.3231 238.313 30 235.059 30 231.269H112.388C112.388 235.131 111.029 238.385 108.311 241.031C105.594 243.677 102.375 245 98.6566 245H43.7313ZM43.7313 217.537C39.8694 217.537 36.6153 216.214 33.9692 213.568C31.3231 210.851 30 207.596 30 203.806H112.388C112.388 207.668 111.029 210.922 108.311 213.568C105.594 216.214 102.375 217.537 98.6566 217.537H43.7313ZM43.7313 190.075C39.8694 190.075 36.6153 188.752 33.9692 186.106C31.3231 183.388 30 180.134 30 176.343H112.388C112.388 180.205 111.029 183.459 108.311 186.106C105.594 188.752 102.375 190.075 98.6566 190.075H43.7313ZM160.447 245V190.075H139.85C135.989 190.075 132.735 188.752 130.088 186.106C127.442 183.388 126.119 180.134 126.119 176.343H208.507C208.507 180.205 207.148 183.459 204.431 186.106C201.713 188.752 198.495 190.075 194.776 190.075H174.179V245H160.447ZM222.238 245C222.238 241.21 223.561 237.991 226.208 235.345C228.925 232.628 232.179 231.269 235.97 231.269H290.895V217.537H222.238V176.343H304.626C304.626 180.205 303.267 183.459 300.55 186.106C297.832 188.752 294.614 190.075 290.895 190.075H235.97V203.806H304.626V245H222.238ZM318.358 245V203.806H400.745V245H387.014V217.537H332.089V245H318.358ZM332.089 190.075C328.227 190.075 324.973 188.752 322.327 186.106C319.681 183.388 318.358 180.134 318.358 176.343H400.745C400.745 180.205 399.387 183.459 396.669 186.106C393.951 188.752 390.733 190.075 387.014 190.075H332.089Z" fill="white"/>
</svg>
