<svg width="156" height="62" viewBox="0 0 156 62" fill="none" xmlns="http://www.w3.org/2000/svg">
<g clip-path="url(#clip0_35_2)">
<rect width="155.062" height="61.048" fill="#C00000"/>
<path d="M12.0645 44C10.6401 44 9.43995 43.512 8.46397 42.536C7.48799 41.5337 7 40.3335 7 38.9355H37.3872C37.3872 40.3599 36.886 41.5601 35.8837 42.536C34.8813 43.512 33.6943 44 32.3227 44H12.0645ZM12.0645 33.8709C10.6401 33.8709 9.43995 33.3829 8.46397 32.407C7.48799 31.4046 7 30.2044 7 28.8064H37.3872C37.3872 30.2308 36.886 31.431 35.8837 32.407C34.8813 33.3829 33.6943 33.8709 32.3227 33.8709H12.0645ZM12.0645 23.7419C10.6401 23.7419 9.43995 23.2539 8.46397 22.2779C7.48799 21.2755 7 20.0753 7 18.6773H37.3872C37.3872 20.1017 36.886 21.3019 35.8837 22.2779C34.8813 23.2539 33.6943 23.7419 32.3227 23.7419H12.0645ZM55.1131 44V23.7419H47.5163C46.0919 23.7419 44.8917 23.2539 43.9157 22.2779C42.9397 21.2755 42.4518 20.0753 42.4518 18.6773H72.839C72.839 20.1017 72.3378 21.3019 71.3354 22.2779C70.3331 23.2539 69.1461 23.7419 67.7744 23.7419H60.1776V44H55.1131ZM77.9035 44C77.9035 42.602 78.3915 41.415 79.3675 40.439C80.3698 39.4366 81.57 38.9355 82.968 38.9355H103.226V33.8709H77.9035V18.6773H108.291C108.291 20.1017 107.79 21.3019 106.787 22.2779C105.785 23.2539 104.598 23.7419 103.226 23.7419H82.968V28.8064H108.291V44H77.9035ZM113.355 44V28.8064H143.742V44H138.678V33.8709H118.42V44H113.355ZM118.42 23.7419C116.995 23.7419 115.795 23.2539 114.819 22.2779C113.843 21.2755 113.355 20.0753 113.355 18.6773H143.742C143.742 20.1017 143.241 21.3019 142.239 22.2779C141.237 23.2539 140.05 23.7419 138.678 23.7419H118.42Z" fill="white"/>
</g>
<defs>
<clipPath id="clip0_35_2">
<rect width="155.062" height="61.048" rx="5" fill="white"/>
</clipPath>
</defs>
</svg>
