<svg width="1239" height="1239" viewBox="0 0 1239 1239" fill="none" xmlns="http://www.w3.org/2000/svg">
<rect width="1239" height="1239" rx="198" fill="black"/>
<g clip-path="url(#clip0_134_2)">
<path d="M195 1107.24V1009.79L407.748 863.624L336.832 814.901L195 717.455V620.008H336.832V668.732L620.496 863.624L336.832 1058.52V1107.24H195ZM904.16 1107.24V1058.52L620.496 863.624L904.16 668.732V620.008H1045.99V717.455L904.16 814.901H903.052L833.244 863.624L1045.99 1009.79V1107.24H904.16Z" fill="#00FF09"/>
</g>
<path d="M904.168 76C944.058 76 977.669 86.0592 1005 106.178C1032.33 126.84 1046 151.58 1046 180.398V389.195H904.168V232.597C904.168 217.916 897.519 205.41 884.223 195.079C870.187 185.292 853.197 180.398 833.252 180.398H195.008C195.008 151.036 209.043 126.296 237.114 106.178C265.185 86.0592 298.427 76 336.84 76H904.168Z" fill="#00FF09"/>
<path d="M335.832 76C295.942 76 262.331 86.0592 234.998 106.178C207.666 126.84 194 151.58 194 180.398V389.195H335.832V232.597C335.832 217.916 342.481 205.41 355.777 195.079C369.813 185.292 386.803 180.398 406.748 180.398H1044.99C1044.99 151.036 1030.96 126.296 1002.89 106.178C974.815 86.0592 941.573 76 903.16 76H335.832Z" fill="#00FF09"/>
<path d="M270.392 485.206V462.608H225.196V440.01H270.392V462.608H292.99V485.206H270.392ZM225.196 553V530.402H202.598V462.608H225.196V530.402H270.392V553H225.196ZM270.392 530.402V507.804H292.99V530.402H270.392ZM338.185 553V440.01H360.783V553H338.185ZM405.979 553V440.01H473.773V462.608H496.371V485.206H473.773V507.804H428.577V553H405.979ZM428.577 485.206H472.869V462.608H428.577V485.206ZM541.566 553V440.01H564.164V485.206H609.36V440.01H631.958V553H609.36V507.804H564.164V553H541.566ZM677.154 553V440.01H744.948V462.608H699.752V485.206H744.948V507.804H699.752V530.402H744.948V553H677.154ZM790.143 553V440.01H857.937V462.608H880.535V485.206H857.937V530.402H880.535V553H857.937V530.402H835.339V507.804H812.741V553H790.143ZM812.741 485.206H857.033V462.608H812.741V485.206ZM1016.12 553V530.402H993.524V507.804H970.927V485.206H948.329V462.608H925.731V440.01H948.329V462.608H970.927V485.206H993.524V507.804H1016.12V530.402H1038.72V553H1016.12ZM993.524 485.206V462.608H1016.12V440.01H1038.72V462.608H1016.12V485.206H993.524ZM948.329 530.402V507.804H970.927V530.402H948.329ZM925.731 553V530.402H948.329V553H925.731Z" fill="#00FF09"/>
<defs>
<clipPath id="clip0_134_2">
<rect width="852" height="477" fill="white" transform="translate(195 620)"/>
</clipPath>
</defs>
</svg>
